<svg width="42" height="42" viewBox="0 0 42 42" fill="none" xmlns="http://www.w3.org/2000/svg">
<path d="M31.7881 39.2013C32.1464 39.8584 33.148 39.5508 33.0759 38.8059L30.8945 16.2648C30.8549 15.8558 31.0003 15.4506 31.2908 15.1601L40.2487 6.2022C41.6698 4.78113 41.6698 2.48687 40.2487 1.0658C38.8277 -0.355265 36.5334 -0.355269 35.1123 1.0658L26.1545 10.0237C25.8639 10.3142 25.4587 10.4596 25.0497 10.42L2.50849 8.2385C1.76358 8.1664 1.45604 9.16798 2.11306 9.52635L16.3778 17.3071C17.1836 17.7467 17.3407 18.8374 16.6916 19.4865L9.12479 27.0533C8.78327 27.3949 8.2876 27.5322 7.81903 27.415L2.48104 26.0805C2.01248 25.9634 1.51681 26.1007 1.17528 26.4422L0.402842 27.2146C-0.22969 27.8472 -0.0993767 28.9057 0.667681 29.366L7.71824 33.5963L11.9486 40.6469C12.4088 41.4139 13.4674 41.5442 14.0999 40.9117L14.8723 40.1393C15.2139 39.7977 15.3512 39.3021 15.234 38.8335L13.8995 33.4955C13.7824 33.0269 13.9197 32.5313 14.2612 32.1897L21.828 24.6229C22.4771 23.9738 23.5678 24.1309 24.0074 24.9368L31.7881 39.2013Z" fill="white"/>
</svg>
