<svg width="49" height="43" viewBox="0 0 49 43" fill="none" xmlns="http://www.w3.org/2000/svg">
<path d="M3.00195 10.0781C3.00195 4.51213 7.51408 0 13.0801 0L46.002 0V32.9219C46.002 38.4879 41.4898 43 35.9238 43H24.502H19.127L11.0645 34.9375L3.00195 26.875V21.5L3.00195 10.0781Z" fill="white"/>
<path d="M19.127 26.875H3.00195L19.127 43V26.875Z" fill="#929292"/>
<path d="M33.1715 27.2177C33.3466 27.5387 33.836 27.3885 33.8008 27.0245L32.7349 16.0101C32.7155 15.8102 32.7866 15.6122 32.9285 15.4703L37.3057 11.0931C38.0001 10.3987 38.0001 9.27768 37.3057 8.58329C36.6113 7.8889 35.4902 7.8889 34.7958 8.58329L30.4187 12.9604C30.2767 13.1024 30.0787 13.1734 29.8789 13.1541L18.8644 12.0881C18.5004 12.0529 18.3501 12.5423 18.6712 12.7174L25.6414 16.5194C26.0352 16.7342 26.112 17.2672 25.7948 17.5843L22.0974 21.2817C21.9305 21.4486 21.6883 21.5157 21.4593 21.4585L18.851 20.8064C18.622 20.7492 18.3798 20.8162 18.213 20.9831L17.8355 21.3606C17.5264 21.6696 17.5901 22.1869 17.9649 22.4118L21.4101 24.4789L23.4772 27.924C23.7021 28.2988 24.2193 28.3625 24.5284 28.0534L24.9058 27.676C25.0727 27.5091 25.1398 27.2669 25.0826 27.038L24.4305 24.4296C24.3732 24.2007 24.4403 23.9585 24.6072 23.7916L28.3046 20.0942C28.6218 19.777 29.1548 19.8537 29.3696 20.2475L33.1715 27.2177Z" fill="black"/>
</svg>
