<svg width="48" height="43" viewBox="0 0 48 43" fill="none" xmlns="http://www.w3.org/2000/svg">
<path d="M2.01563 10.0781C2.01563 4.51213 6.52775 0 12.0937 0L45.0156 0V32.9219C45.0156 38.4879 40.5035 43 34.9375 43H23.5156H18.1406L10.0781 34.9375L2.01563 26.875V21.5L2.01563 10.0781Z" fill="black"/>
<path d="M18.1406 26.875H2.01562L18.1406 43V26.875Z" fill="#929292"/>
<path d="M32.1851 27.2177C32.3603 27.5387 32.8497 27.3885 32.8144 27.0245L31.7485 16.0101C31.7292 15.8102 31.8002 15.6122 31.9422 15.4703L36.3193 11.0931C37.0137 10.3987 37.0137 9.27768 36.3193 8.58329C35.625 7.8889 34.5039 7.8889 33.8095 8.58329L29.4324 12.9604C29.2904 13.1024 29.0924 13.1734 28.8926 13.1541L17.8781 12.0881C17.5141 12.0529 17.3638 12.5423 17.6849 12.7174L24.6551 16.5194C25.0489 16.7342 25.1256 17.2672 24.8085 17.5843L21.111 21.2817C20.9442 21.4486 20.702 21.5157 20.473 21.4585L17.8647 20.8064C17.6357 20.7492 17.3935 20.8162 17.2266 20.9831L16.8492 21.3606C16.5401 21.6696 16.6038 22.1869 16.9786 22.4118L20.4238 24.4789L22.4909 27.924C22.7157 28.2988 23.233 28.3625 23.5421 28.0534L23.9195 27.676C24.0864 27.5091 24.1535 27.2669 24.0962 27.038L23.4442 24.4296C23.3869 24.2007 23.454 23.9585 23.6209 23.7916L27.3183 20.0942C27.6355 19.777 28.1684 19.8537 28.3832 20.2475L32.1851 27.2177Z" fill="white"/>
</svg>
