<svg width="18" height="18" viewBox="0 0 18 18" fill="none" xmlns="http://www.w3.org/2000/svg">
<path d="M13.3221 16.4289C13.4723 16.7043 13.892 16.5754 13.8618 16.2632L12.9476 6.81642C12.931 6.64503 12.9919 6.47521 13.1137 6.35345L16.8679 2.59928C17.4634 2.00373 17.4634 1.04223 16.8679 0.446668C16.2723 -0.148888 15.3108 -0.14889 14.7152 0.446667L10.9611 4.20083C10.8393 4.32259 10.6695 4.38352 10.4981 4.36693L1.05129 3.45268C0.739099 3.42246 0.610214 3.84221 0.885562 3.9924L6.86377 7.25326C7.2015 7.43748 7.26733 7.89459 6.9953 8.16662L3.82411 11.3378C3.68099 11.4809 3.47325 11.5385 3.27688 11.4894L1.03978 10.9301C0.84341 10.881 0.635679 10.9385 0.49255 11.0817L0.168827 11.4054C-0.0962609 11.6705 -0.0416478 12.1141 0.279819 12.307L3.23464 14.0799L5.00753 17.0347C5.20041 17.3562 5.64405 17.4108 5.90913 17.1457L6.23286 16.822C6.37599 16.6789 6.43352 16.4711 6.38443 16.2748L5.82516 14.0377C5.77606 13.8413 5.8336 13.6335 5.97673 13.4904L9.14791 10.3192C9.41994 10.0472 9.87705 10.113 10.0613 10.4508L13.3221 16.4289Z" fill="#5FA5E2"/>
</svg>
