<svg width="73" height="67" viewBox="0 0 73 67" fill="none" xmlns="http://www.w3.org/2000/svg">
<path d="M3.12891 15.6433C3.12891 7.00377 10.1327 0 18.7722 0L69.8738 0V51.1016C69.8738 59.7411 62.8701 66.7449 54.2305 66.7449H36.5014H28.1582L15.6436 54.2302L3.12891 41.7156L3.12891 33.3725L3.12891 15.6433Z" fill="url(#paint0_linear_61_1158)"/>
<path d="M28.1582 41.7156H3.12891L28.1582 66.7449V41.7156Z" fill="#FF9A6F"/>
<path d="M49.9578 42.2475C50.2296 42.7458 50.9893 42.5126 50.9346 41.9476L49.2801 24.8509C49.25 24.5407 49.3603 24.2334 49.5807 24.013L56.3749 17.2188C57.4527 16.141 57.4527 14.4009 56.3749 13.323C55.2971 12.2452 53.557 12.2452 52.4791 13.323L45.6849 20.1173C45.4645 20.3376 45.1572 20.4479 44.847 20.4179L27.7503 18.7633C27.1853 18.7086 26.952 19.4682 27.4503 19.7401L38.2696 25.6415C38.8808 25.9749 39 26.8022 38.5077 27.2945L32.7685 33.0337C32.5095 33.2927 32.1335 33.3968 31.7781 33.308L27.7294 32.2958C27.374 32.207 26.9981 32.3111 26.7391 32.5701L26.1532 33.156C25.6734 33.6358 25.7723 34.4386 26.3541 34.7877L31.7017 37.9963L34.9102 43.3439C35.2593 43.9256 36.0622 44.0245 36.5419 43.5447L37.1278 42.9589C37.3868 42.6998 37.491 42.3239 37.4021 41.9685L36.39 37.9198C36.3011 37.5644 36.4052 37.1885 36.6643 36.9294L42.4034 31.1903C42.8957 30.698 43.723 30.8171 44.0564 31.4283L49.9578 42.2475Z" fill="white"/>
<defs>
<linearGradient id="paint0_linear_61_1158" x1="36.5981" y1="-258.999" x2="31.1584" y2="66.6557" gradientUnits="userSpaceOnUse">
<stop stop-color="#36D5F9"/>
<stop offset="1" stop-color="#00ACEB"/>
</linearGradient>
</defs>
</svg>
